<?xml version="1.0" encoding="iso-8859-1"?>
<!-- Generator: Adobe Illustrator 19.0.0, SVG Export Plug-In . SVG Version: 6.00 Build 0)  -->
<svg version="1.1" id="Capa_1" xmlns="http://www.w3.org/2000/svg" xmlns:xlink="http://www.w3.org/1999/xlink" x="0px" y="0px"
	 viewBox="0 0 489.2 489.2" style="enable-background:new 0 0 489.2 489.2;" xml:space="preserve">
<g>
	<g>
		<g>
			<path d="M449.7,377.35c21.8,0,39.5-17.7,39.5-39.5V60.75c0-21.8-17.7-39.5-39.5-39.5H260.2h-18.6c-6,0-10.9,4.9-10.9,10.9v231.7
				c0,7.1,8,11.3,13.8,7.3l60.8-41.7l60.8,41.7c5.9,4,13.8-0.2,13.8-7.3V75.15h55.3v248H53.9v-248h106.5c6.4,0,11.6-5.2,11.6-11.6
				v-30.7c0-6.4-5.2-11.6-11.6-11.6H39.5C17.7,21.25,0,38.95,0,60.75v277.1c0,21.8,17.7,39.5,39.5,39.5h160.9v44.1H169
				c-5.2,0-9.5,4.2-9.5,9.5v27.5c0,5.2,4.2,9.5,9.5,9.5h151.2c5.2,0,9.5-4.2,9.5-9.5v-27.5c0-5.2-4.2-9.5-9.5-9.5h-31.4v-44.1H449.7
				z M351.2,125.05l-20.7,17.6l6.5,26.5c1.2,5-4.2,9-8.5,6.2l-23.1-14.4l-23.1,14.4c-4.3,2.7-9.8-1.3-8.5-6.2l6.5-26.5l-20.7-17.6
				c-3.9-3.3-1.8-9.7,3.3-10.1l27.1-2l10.2-25.3c1.9-4.8,8.6-4.8,10.5,0l10.2,25.3l27.1,2C353,115.25,355.1,121.75,351.2,125.05z"/>
		</g>
	</g>
</g>
<g>
</g>
<g>
</g>
<g>
</g>
<g>
</g>
<g>
</g>
<g>
</g>
<g>
</g>
<g>
</g>
<g>
</g>
<g>
</g>
<g>
</g>
<g>
</g>
<g>
</g>
<g>
</g>
<g>
</g>
</svg>
