<?xml version="1.0" encoding="iso-8859-1"?>
<!-- Generator: Adobe Illustrator 19.0.0, SVG Export Plug-In . SVG Version: 6.00 Build 0)  -->
<svg version="1.1" id="Capa_1" xmlns="http://www.w3.org/2000/svg" xmlns:xlink="http://www.w3.org/1999/xlink" x="0px" y="0px"
	 viewBox="0 0 489.2 489.2" style="enable-background:new 0 0 489.2 489.2;" xml:space="preserve">
<g>
	<g>
		<g>
			<path d="M39.5,377.35h160.9v44.1H169c-5.2,0-9.5,4.2-9.5,9.5v27.5c0,5.2,4.2,9.5,9.5,9.5h151.2c5.2,0,9.5-4.2,9.5-9.5v-27.5
				c0-5.2-4.2-9.5-9.5-9.5h-31.4v-44.1h160.9c21.8,0,39.5-17.7,39.5-39.5V60.75c0-21.8-17.7-39.5-39.5-39.5H39.5
				C17.7,21.25,0,38.95,0,60.75v277.1C0,359.65,17.7,377.35,39.5,377.35z M53.9,75.15h381.4v248H53.9V75.15z M295.5,135.05
				l31.1,31.3l-71.7,71.3l-31.3,31.1l-31.1-31.2l-30-30.2l31.3-31.1l30,30.2L295.5,135.05z"/>
		</g>
	</g>
</g>
<g>
</g>
<g>
</g>
<g>
</g>
<g>
</g>
<g>
</g>
<g>
</g>
<g>
</g>
<g>
</g>
<g>
</g>
<g>
</g>
<g>
</g>
<g>
</g>
<g>
</g>
<g>
</g>
<g>
</g>
</svg>
